{"title":"Salt.Cam.2010.V2.XviD.FEEL-FREE","uid":5728695,"size":1153330852,"categoryP":"video","categoryS":"movies","magnet":"?xt=urn:btih:15e5753bf6daa02f2f0a76093312fb4e490522d0&amp;dn=Salt.Cam.2010.V2.XviD.FEEL-FREE&amp;tr=udp%3A%2F%2Ftracker.openbittorrent.com%3A80&amp;tr=udp%3A%2F%2Fopen.demonii.com%3A1337&amp;tr=udp%3A%2F%2Ftracker.coppersurfer.tk%3A6969&amp;tr=udp%3A%2F%2Fexodus.desync.com%3A6969","seeders":0,"leechers":1,"uploader":"hiest","files":9,"time":1280568646,"description":"Genre:Action | Thriller\nLanguage:English\nIMDb:http://www.imdb.com/title/tt0944835/\nSource:CAMRip PROPER.rus/EPIDEMZ.NET.Thanks\nSource audio:Own/Hogs.Thanks\n......................................................\nGeneral\nComplete name : Salt.Cam.2010.V2.XviD.FEEL-FREE\nFormat : AVI\nFormat/Info : Audio Video Interleave\nFile size : 1.07 GiB\nDuration : 1h 30mn\nOverall bit rate : 1 691 Kbps\nWriting library : VirtualDubMod build 2550/release\n......................................................\nVideo\nID : 0\nFormat : MPEG-4 Visual\nFormat profile : AdvancedSimple@L5\nFormat settings, BVOP : Yes\nFormat settings, QPel : No\nFormat settings, GMC : No warppoints\nFormat settings, Matrix : Custom\nCodec ID : XVID\nCodec ID/Hint : XviD\nDuration : 1h 30mn\nBit rate : 1 425 Kbps\nWidth : 720 pixels\nHeight : 304 pixels\nDisplay aspect ratio : 2.35:1\nFrame rate : 25.000 fps\nResolution : 24 bits\nColorimetry : 4:2:0\nScan type : Progressive\nBits/(Pixel*Frame) : 0.260\nStream size : 925 MiB (84%)\nWriting library : XviD 1.2.1 (UTC 2008-12-04)\n.......................................................\nAudio\nID : 1\nFormat : MPEG Audio\nCodec ID : 55\nCodec ID/Hint : MP3\nDuration : 1h 30mn\nBit rate : 256 Kbps\nChannel(s) : 2 channels\nSampling rate : 48.0 KHz\nStream size : 166 MiB (15%)\nAlignment : Split accross interleaves\nInterleave, duration : 40 ms (1.00 video frame)\nInterleave, preload duration : 500 ms\n......................................................\nPlot:\nAs a CIA officer, Evelyn Salt swore an oath to duty, honor and country. Her loyalty will be tested when a defector accuses her of being a Russian spy\n...................................................","torrent":{"xt":"urn:btih:15e5753bf6daa02f2f0a76093312fb4e490522d0","amp;dn":"Salt.Cam.2010.V2.XviD.FEEL-FREE","amp;tr":["udp%3A%2F%2Ftracker.openbittorrent.com%3A80","udp%3A%2F%2Fopen.demonii.com%3A1337","udp%3A%2F%2Ftracker.coppersurfer.tk%3A6969","udp%3A%2F%2Fexodus.desync.com%3A6969"],"infoHash":"15e5753bf6daa02f2f0a76093312fb4e490522d0","infoHashBuffer":{"type":"Buffer","data":[21,229,117,59,246,218,160,47,47,10,118,9,51,18,251,78,73,5,34,208]},"announce":[],"urlList":[]}}